<svg width="19" height="31" viewBox="0 0 19 31" fill="none" xmlns="http://www.w3.org/2000/svg">
<path d="M17.7176 14.29L3.9222 0.495236C3.60338 0.17579 3.17745 0 2.72317 0C2.26889 0 1.84296 0.17579 1.52414 0.495236L0.507838 1.51091C-0.153107 2.17249 -0.153107 3.24865 0.507838 3.90896L12.0923 15.4935L0.495236 27.0906C0.17642 27.41 0 27.8353 0 28.2896C0 28.7439 0.17642 29.1698 0.495236 29.4892L1.51091 30.5049C1.83036 30.8244 2.25566 31.0002 2.70994 31.0002C3.16422 31.0002 3.59015 30.8244 3.90896 30.5049L17.7176 16.6969C18.0377 16.3768 18.2128 15.949 18.2122 15.4941C18.2128 15.0379 18.0377 14.6101 17.7176 14.29Z" fill="#787878"/>
</svg>
