<svg width="70" height="79" viewBox="0 0 70 79" fill="none" xmlns="http://www.w3.org/2000/svg">
<path d="M5.85524 1.14355C3.25241 1.14355 1.14362 3.25235 1.14362 5.85365V66.5329C1.14362 69.1342 3.25241 71.243 5.85371 71.243H50.1429C52.7442 71.243 54.853 69.1342 54.853 66.5329V15.6688C54.853 14.7219 54.4764 13.8146 53.807 13.1452L42.8498 2.18804C42.1805 1.51865 41.2732 1.14203 40.3263 1.14203L5.85524 1.14355Z" fill="#F4F8F8"/>
<path d="M46.5169 14.1913C46.1616 14.1913 45.817 14.1501 45.4846 14.0769V66.5329C45.4846 69.1342 43.3758 71.243 40.7745 71.243H50.1444C52.7457 71.243 54.8545 69.1342 54.8545 66.5329V15.6688C54.8545 15.1534 54.7432 14.6502 54.5328 14.1913H46.5169Z" fill="#E7ECF1"/>
<path d="M53.8085 13.1453L42.8513 2.18808C42.5463 1.88313 42.191 1.63916 41.8053 1.46381V9.47966C41.8053 12.081 43.9141 14.1898 46.5154 14.1898H54.5312C54.3574 13.8055 54.1134 13.4502 53.8085 13.1453Z" fill="#FC8086"/>
<path d="M58.6161 62.4114L41.7915 52.4484C40.9285 51.9376 40.6434 50.823 41.1557 49.9599C41.1557 49.9599 41.572 49.2585 42.0157 48.5068L38.6123 46.4925C36.3663 45.2041 35.3172 44.9662 33.2908 45.7484L31.0829 46.6023C29.7395 47.1223 28.2315 46.9957 26.9919 46.2623L21.0817 42.7781L12.6877 56.9465L20.2553 61.4127C20.7676 61.7161 21.2175 62.1141 21.5819 62.5868L24.1313 65.8941C25.5403 67.5408 28.4465 69.6786 30.3113 70.7825L40.0441 76.5478C41.328 77.3087 42.987 76.8848 43.7478 75.5994C44.5087 74.314 44.0848 72.6565 42.7994 71.8957L45.8399 73.6964C47.1237 74.4573 48.7827 74.0334 49.5436 72.748C50.3045 71.4626 49.8806 69.8052 48.5952 69.0443L50.6216 70.2458C51.9055 71.0067 53.5645 70.5828 54.3254 69.2974C55.0862 68.0135 54.6623 66.3545 53.3769 65.5937L55.8578 67.0636C57.1417 67.8244 58.8006 67.4006 59.5615 66.1151C60.3239 64.8313 59.9 63.1723 58.6161 62.4114Z" fill="#FFECE3"/>
<path d="M58.6161 62.4114L52.8173 58.9775C52.6893 59.4731 52.4438 59.9534 52.0427 60.3712C51.015 61.4386 49.3637 61.6124 48.0874 60.8576L46.4376 59.8802C46.3781 59.8451 46.3034 59.8558 46.2577 59.9061C46.2104 59.9565 46.2058 60.0342 46.2455 60.0906C46.9362 61.0726 47.0307 62.4068 46.3796 63.5062C45.4937 65.002 43.5618 65.496 42.066 64.6101L40.7699 63.8371C40.7196 63.8066 40.6525 63.8157 40.6129 63.8599C40.5717 63.9042 40.5702 63.9712 40.6068 64.02C41.3676 65.0234 41.485 66.4323 40.7791 67.5743C39.8703 69.0473 37.9124 69.4681 36.4242 68.5868L35.3599 67.9571C35.148 67.832 34.8842 67.8427 34.6829 67.9845C34.4817 68.1263 34.3841 68.3733 34.4329 68.6142C34.5838 69.3523 34.4725 70.1467 34.0593 70.8466C33.7055 71.4443 33.1825 71.8804 32.5879 72.1335L39.9816 76.5142C41.2853 77.2873 43.0251 76.8756 43.7722 75.5582C44.498 74.2804 44.0681 72.6504 42.7979 71.8987L45.7773 73.6644C47.081 74.4374 48.8208 74.0258 49.568 72.7083C50.2938 71.4305 49.8638 69.8005 48.5936 69.0488L50.5591 70.2138C51.8628 70.9868 53.6026 70.5751 54.3498 69.2577C55.0756 67.9799 54.6456 66.3499 53.3754 65.5982L55.7953 67.0315C57.099 67.8046 58.8372 67.3929 59.5859 66.0755C60.3148 64.7931 59.8848 63.1646 58.6161 62.4114Z" fill="#FFDDCE"/>
<path d="M57.1584 43.6244L52.6191 46.2623C51.3794 46.9972 49.8714 47.1223 48.5281 46.6023L46.0381 45.6234C45.2589 45.3169 44.4035 45.2635 43.5923 45.4679L39.7772 46.4331C38.0009 46.8829 36.7566 48.4809 36.7566 50.3121V55.405C36.7566 56.1247 37.3406 56.7102 38.0603 56.7117C40.2316 56.7132 41.9928 54.9536 41.9928 52.7823V52.5673L58.3233 62.2376C58.6252 61.9158 58.9729 61.6368 59.3541 61.4111L65.5509 57.7913L57.1584 43.6244Z" fill="#FCD0A3"/>
<path d="M59.5798 47.7109L58.7076 50.9465L48.9306 56.6767L58.3249 62.2391C58.6268 61.9174 58.9744 61.6384 59.3556 61.4127L65.5524 57.7928L59.5798 47.7109Z" fill="#FFB983"/>
<path d="M23.5717 64.4135L22.0408 66.5467C21.1702 67.7589 19.4822 68.0364 18.2685 67.1657C17.0563 66.2951 16.7787 64.6071 17.6494 63.3934L19.1803 61.2602C20.051 60.048 21.7389 59.7705 22.9526 60.6411C24.1649 61.5118 24.4424 63.2013 23.5717 64.4135Z" fill="#FCD0A3"/>
<path d="M29.6526 65.2125L26.4322 69.6984C25.5616 70.9107 23.8736 71.1882 22.6599 70.3175C21.4477 69.4468 21.1702 67.7589 22.0408 66.5452L25.2612 62.0592C26.1318 60.847 27.8198 60.5695 29.0335 61.4401C30.2457 62.3108 30.5233 64.0003 29.6526 65.2125Z" fill="#FCD0A3"/>
<path d="M34.0424 68.3643L30.8221 72.8502C29.9514 74.0624 28.2635 74.34 27.0497 73.4693C25.8375 72.5986 25.56 70.9107 26.4307 69.697L29.651 65.211C30.5217 63.9988 32.2096 63.7213 33.4234 64.5919C34.6356 65.4641 34.9131 67.1521 34.0424 68.3643Z" fill="#FCD0A3"/>
<path d="M37.0036 73.5105L35.9332 75.0017C35.0626 76.2139 33.3746 76.4914 32.1609 75.6208C30.9486 74.7501 30.6711 73.0622 31.5418 71.8484L32.6122 70.3572C33.4829 69.145 35.1708 68.8675 36.3845 69.7381C37.5968 70.6088 37.8743 72.2982 37.0036 73.5105Z" fill="#FFB983"/>
<path d="M24.2442 41.3052L21.8778 39.9024C21.2267 39.5166 20.3865 39.7316 20.0007 40.3827L10.268 56.8124C9.88218 57.4635 10.0972 58.3036 10.7483 58.6894L13.1163 60.0922C14.7036 61.033 16.7544 60.5085 17.6937 58.9212L25.4168 45.8857C26.3576 44.2968 25.8331 42.246 24.2442 41.3052Z" fill="#7C8B96"/>
<path d="M56.3625 39.9039L53.996 41.3067C52.4087 42.2475 51.8842 44.2968 52.825 45.8842L60.5481 58.9196C61.4889 60.507 63.5382 61.0315 65.1255 60.0907L67.492 58.6879C68.1431 58.3021 68.3581 57.4619 67.9723 56.8108L58.2395 40.3827C57.8538 39.7331 57.0136 39.5181 56.3625 39.9039Z" fill="#7C8B96"/>
<path d="M46.6923 21.0117H9.30735C8.67304 21.0117 8.15918 21.5255 8.15918 22.1598C8.15918 22.7941 8.67304 23.308 9.30735 23.308H46.6938C47.3282 23.308 47.842 22.7941 47.842 22.1598C47.842 21.5255 47.3266 21.0117 46.6923 21.0117Z" fill="black"/>
<path d="M9.30583 15.3425H27.9983C28.6326 15.3425 29.1465 14.8286 29.1465 14.1943C29.1465 13.56 28.6326 13.0461 27.9983 13.0461H9.30735C8.67304 13.0461 8.15918 13.56 8.15918 14.1943C8.15766 14.8286 8.67304 15.3425 9.30583 15.3425Z" fill="black"/>
<path d="M46.6923 28.0715H9.30735C8.67304 28.0715 8.15918 28.5853 8.15918 29.2196C8.15918 29.854 8.67304 30.3678 9.30735 30.3678H46.6938C47.3282 30.3678 47.842 29.854 47.842 29.2196C47.842 28.5853 47.3266 28.0715 46.6923 28.0715Z" fill="black"/>
<path d="M17.8233 70.0903H5.85827C3.89433 70.0903 2.29634 68.4923 2.29634 66.5284V5.85827C2.29634 3.89433 3.89433 2.29634 5.85827 2.29634H40.3278C40.4391 2.29634 40.5489 2.30702 40.6572 2.32074V9.48423C40.6572 12.7153 43.2859 15.3425 46.5154 15.3425H53.6774C53.6926 15.4508 53.7018 15.5605 53.7018 15.6719V35.2289C53.7018 35.8632 54.2157 36.3771 54.85 36.3771C55.4843 36.3771 55.9981 35.8632 55.9981 35.2289V15.6719C55.9981 14.4124 55.5072 13.2276 54.6167 12.3371L43.6625 1.38147C42.7721 0.490984 41.5873 0 40.3278 0H5.85827C2.62875 0 0 2.62875 0 5.85827V66.5284C0 69.7579 2.62875 72.3867 5.85827 72.3867H17.8233C18.4577 72.3867 18.9715 71.8728 18.9715 71.2385C18.9715 70.6042 18.4577 70.0903 17.8233 70.0903ZM52.0779 13.0462H46.5154C44.5515 13.0462 42.9535 11.4482 42.9535 9.48423V3.92178L52.0779 13.0462Z" fill="black"/>
<path d="M68.9559 56.2238L59.2246 39.7987C58.5156 38.6017 56.9725 38.2052 55.774 38.9158L53.4075 40.3186C51.5702 41.4073 50.794 43.6091 51.4238 45.5609C50.6263 45.8491 49.7526 45.8445 48.9475 45.5334C47.0781 44.9448 45.6585 43.7631 43.3119 44.3563C39.3276 45.3703 39.448 45.3199 39.0882 45.4435C36.7552 44.1154 35.3524 43.7204 32.8762 44.678L30.6682 45.5319C29.6466 45.9268 28.5198 45.8338 27.576 45.2742L26.9737 44.9189C27.268 43.1578 26.4857 41.2991 24.8329 40.3186L22.4664 38.9158C21.2709 38.2083 19.7233 38.6047 19.0158 39.7987L9.28299 56.2238C8.57396 57.4207 8.96888 58.9653 10.1658 59.6744L12.5323 61.0772C13.249 61.5011 14.0358 61.7039 14.8134 61.7039C15.681 61.7039 16.5349 61.4523 17.2668 60.9796L17.7609 61.2708L16.7194 62.7209C15.4782 64.45 15.8732 66.8531 17.6023 68.0943C18.4013 68.6676 19.4061 68.9299 20.446 68.7667C20.6107 69.7304 21.1383 70.6316 21.9937 71.2461C22.7957 71.8224 23.796 72.0847 24.8374 71.9215C25.0021 72.8837 25.5297 73.7848 26.3851 74.3993C27.5333 75.2227 28.9605 75.3188 30.1498 74.811C30.4106 75.4865 30.8619 76.098 31.4932 76.5508C33.1415 77.7341 35.4119 77.4245 36.6912 75.8921L39.4587 77.5313C41.2885 78.6154 43.6504 78.0131 44.736 76.1803C45.0135 75.7122 45.1858 75.2014 45.2483 74.6768L45.2544 74.6799C47.0812 75.7625 49.4492 75.1556 50.5318 73.3289C50.8459 72.7998 51.0167 72.225 51.0593 71.6501C52.6695 72.0557 54.4261 71.3787 55.3151 69.8783C55.6063 69.3858 55.7755 68.8552 55.832 68.32C57.558 68.997 59.5753 68.3428 60.5512 66.6976C61.0757 65.8132 61.2236 64.7763 60.969 63.7791C60.8226 63.2089 60.5543 62.6904 60.1868 62.2543L61.7116 61.3623C63.0015 61.8914 64.4745 61.8076 65.7081 61.0757L68.0745 59.6729C69.27 58.9653 69.6649 57.4223 68.9559 56.2238ZM13.7034 59.1011L11.3369 57.6982C11.2317 57.6357 11.1966 57.5 11.2591 57.3948L20.9904 40.9697C21.0529 40.8645 21.1901 40.8294 21.2938 40.8919L23.6603 42.2948C24.7124 42.9184 25.0418 44.2663 24.4288 45.2986L16.7072 58.3326C16.0912 59.3725 14.7433 59.7171 13.7034 59.1011ZM18.941 66.228C18.2442 65.7278 18.0841 64.7565 18.5858 64.0597L20.1167 61.928C20.6046 61.2495 21.5759 61.0635 22.2849 61.5728C22.9818 62.0729 23.1403 63.0457 22.6417 63.741L21.1093 65.8712C20.6092 66.568 19.6364 66.7266 18.941 66.228ZM23.3309 69.3797C22.6341 68.8796 22.4755 67.9068 22.9741 67.2114L24.505 65.0798L26.1945 62.727C26.4369 62.39 26.7953 62.1674 27.2054 62.1003C27.2908 62.0866 27.3762 62.079 27.4601 62.079C27.7818 62.079 28.0959 62.1796 28.3628 62.3717C28.6997 62.6142 28.9224 62.9725 28.9894 63.3827C29.0565 63.7929 28.9605 64.203 28.718 64.5415L25.4977 69.0275C24.9991 69.7213 24.0293 69.8814 23.3309 69.3797ZM27.7223 72.5315C27.027 72.0313 26.8669 71.06 27.3655 70.3632C27.3655 70.3632 27.3655 70.3632 27.3655 70.3617L30.5859 65.8757C31.0845 65.1804 32.0589 65.0203 32.7542 65.5189C33.451 66.0191 33.6096 66.9919 33.111 67.6872L31.6792 69.6831L29.8891 72.1762C29.3905 72.8715 28.4177 73.0316 27.7223 72.5315ZM32.8304 74.6829C32.1351 74.1828 31.975 73.2115 32.4736 72.5162L33.5455 71.0234C34.0457 70.3266 35.0185 70.168 35.7138 70.6682C36.4091 71.1683 36.5692 72.1411 36.0691 72.8364L34.9987 74.3277C34.5001 75.023 33.5257 75.1831 32.8304 74.6829ZM58.572 65.5265C58.1344 66.2645 57.1799 66.5085 56.4419 66.0724C55.1931 65.3329 47.1345 60.5588 46.2761 60.0495C45.7302 59.7262 45.0257 59.9061 44.7025 60.452C44.3792 60.9979 44.5591 61.7024 45.105 62.0256L52.79 66.5787C53.528 67.0163 53.7735 67.9677 53.3359 68.7088C52.8983 69.4468 51.9437 69.6908 51.2057 69.2547C48.3635 67.5713 46.055 66.2036 43.5162 64.6986C42.9703 64.3753 42.2659 64.5553 41.9426 65.1011C41.6193 65.647 41.7993 66.3515 42.3451 66.6747L48.0082 70.0293L48.0098 70.0308C48.7478 70.4699 48.9917 71.4214 48.5541 72.1594C48.1165 72.8974 47.162 73.1414 46.424 72.7053L43.385 70.9045H43.3835C43.3835 70.9045 43.3835 70.9045 43.382 70.9045L41.1634 69.5901C40.6175 69.2669 39.9131 69.4468 39.5898 69.9927C39.2666 70.5386 39.4465 71.243 39.9924 71.5663L42.211 72.8806C42.211 72.8806 42.211 72.8806 42.2125 72.8806C42.9505 73.3183 43.196 74.2697 42.7584 75.0108C42.3207 75.7488 41.3662 75.9927 40.6282 75.5567L38.0406 74.0242C39.1492 72.3119 38.7283 70.0064 37.0541 68.8033C36.5616 68.4511 36.0142 68.23 35.4546 68.137C36.0493 66.5482 35.5369 64.694 34.0945 63.6587C33.2406 63.0457 32.219 62.8338 31.2538 62.9847C31.0815 61.9814 30.5325 61.1016 29.7046 60.5069C28.1462 59.3892 26.0298 59.6042 24.7215 60.9262C24.4562 60.4597 24.0888 60.0403 23.6252 59.7079C22.3307 58.7793 20.6503 58.7702 19.368 59.5524L18.8419 59.2413L26.0649 47.0491L26.4095 47.2519C27.9282 48.1515 29.7808 48.339 31.4993 47.6742L33.7072 46.8203C34.9712 46.3324 35.6665 46.3004 36.9169 46.8905C36.0996 47.8084 35.6132 49.0145 35.6132 50.3152V55.4065C35.6132 56.759 36.7125 57.8599 38.0635 57.8614H38.0666C39.4221 57.8614 40.6968 57.3338 41.6559 56.3747C42.2155 55.8166 42.6272 55.1503 42.8742 54.423C44.3579 55.3013 56.6081 62.5562 58.0292 63.3979C58.386 63.6099 58.6406 63.9484 58.7428 64.3494C58.8434 64.7504 58.784 65.1697 58.572 65.5265ZM66.902 57.6982L64.5355 59.1011C63.4956 59.7171 62.1477 59.3725 61.5316 58.3326L57.9118 52.2227C57.5885 51.6768 56.8841 51.4969 56.3382 51.8202C55.7923 52.1434 55.6124 52.8479 55.9356 53.3937L59.5555 59.5036C59.6241 59.618 59.6973 59.7277 59.7736 59.8345L58.7672 60.4231C58.5644 60.5435 58.3677 60.6762 58.1817 60.821L42.58 51.5808C41.816 51.1279 40.8463 51.6799 40.8463 52.5688C40.8341 52.6374 40.9652 53.8176 40.0305 54.7508C39.506 55.2753 38.8076 55.5651 38.065 55.5651H38.0635C37.9781 55.5651 37.908 55.4949 37.908 55.408V50.3167C37.908 48.9871 38.8229 47.8648 40.061 47.5507L43.876 46.5855C45.2605 46.2363 46.0428 46.9744 48.115 47.6758C49.5528 48.2323 51.1173 48.1972 52.5064 47.6056L53.2002 48.7751C53.5234 49.321 54.2279 49.5009 54.7738 49.1777C55.3196 48.8544 55.4995 48.15 55.1763 47.6041L53.8116 45.3001C53.1941 44.2572 53.5387 42.9138 54.5801 42.2963L56.9466 40.8935C57.0503 40.8325 57.1875 40.863 57.25 40.9712L66.9813 57.3963C67.0423 57.5 67.0072 57.6357 66.902 57.6982Z" fill="black"/>
</svg>
