<svg width="13" height="13" viewBox="0 0 13 13" fill="none" xmlns="http://www.w3.org/2000/svg">
<path d="M11.8393 5.33929H7.89286C7.7646 5.33929 7.66071 5.2354 7.66071 5.10714V1.16071C7.66071 0.51971 7.141 0 6.5 0C5.859 0 5.33929 0.51971 5.33929 1.16071V5.10714C5.33929 5.2354 5.2354 5.33929 5.10714 5.33929H1.16071C0.51971 5.33929 0 5.859 0 6.5C0 7.141 0.51971 7.66071 1.16071 7.66071H5.10714C5.2354 7.66071 5.33929 7.7646 5.33929 7.89286V11.8393C5.33929 12.4803 5.859 13 6.5 13C7.141 13 7.66071 12.4803 7.66071 11.8393V7.89286C7.66071 7.7646 7.7646 7.66071 7.89286 7.66071H11.8393C12.4803 7.66071 13 7.141 13 6.5C13 5.859 12.4803 5.33929 11.8393 5.33929Z" fill="black"/>
</svg>
