<svg width="25" height="25" viewBox="0 0 25 25" fill="none" xmlns="http://www.w3.org/2000/svg">
<path d="M12.7461 25C12.6631 25 12.5806 25 12.4971 24.9995C10.5376 25.0044 8.72705 24.9546 6.96582 24.8472C5.35156 24.749 3.87793 24.1909 2.7041 23.2339C1.57129 22.3105 0.797852 21.0615 0.405273 19.5229C0.0634766 18.183 0.0454102 16.8681 0.027832 15.5961C0.015625 14.6835 0.00244141 13.6019 0 12.5023C0.00244141 11.3978 0.015625 10.3163 0.0283203 9.40367C0.0458984 8.13169 0.0639649 6.81673 0.405762 5.47688C0.79834 3.9378 1.57178 2.68926 2.70459 1.76591C3.87842 0.808868 5.35205 0.250758 6.9668 0.152612C8.72754 0.0456776 10.5386 -0.00412753 12.5024 0.000267042C14.4624 -0.00412753 16.2725 0.0456776 18.0337 0.152612C19.6479 0.250758 21.1216 0.808868 22.2954 1.76591C23.4282 2.68926 24.2017 3.93829 24.5942 5.47688C24.936 6.81673 24.9541 8.13217 24.9717 9.40367C24.9844 10.3163 24.9976 11.3978 25 12.4974V12.5018C24.9976 13.6015 24.9844 14.683 24.9717 15.5956C24.9541 16.8676 24.9365 18.1826 24.5942 19.5224C24.2017 21.0615 23.4282 22.31 22.2954 23.2334C21.1216 24.1904 19.6479 24.7485 18.0337 24.8467C16.3467 24.9502 14.6143 25 12.7461 25ZM12.4971 23.0464C14.4248 23.0508 16.1948 23.0024 17.9146 22.8979C19.1353 22.8237 20.1938 22.4277 21.0605 21.7207C21.8618 21.0669 22.4141 20.165 22.7012 19.0405C22.9858 17.9252 23.002 16.728 23.0181 15.5697C23.0303 14.663 23.0435 13.5893 23.0459 12.5004C23.0435 11.411 23.0303 10.3373 23.0181 9.43101C23.0024 8.27329 22.9858 7.07552 22.7012 5.96028C22.4141 4.83527 21.8623 3.93341 21.0605 3.28008C20.1934 2.57304 19.1353 2.17704 17.9146 2.10282C16.1953 1.99833 14.4253 1.94999 12.502 1.9539C10.5747 1.9495 8.8042 1.99784 7.08496 2.10282C5.86426 2.17704 4.80566 2.57304 3.93896 3.28008C3.1377 3.9339 2.58545 4.83576 2.29834 5.96028C2.01367 7.07552 1.99756 8.2728 1.98145 9.43101C1.96924 10.3382 1.95605 11.413 1.95361 12.5028C1.95605 13.5883 1.96924 14.6625 1.98145 15.5702C1.99707 16.728 2.01367 17.9257 2.29834 19.041C2.58545 20.166 3.13721 21.0678 3.93896 21.7212C4.80615 22.4282 5.86426 22.8242 7.08496 22.8984C8.8042 23.0024 10.5747 23.0513 12.4971 23.0464ZM12.4507 18.6035C9.08545 18.6035 6.34717 15.8656 6.34717 12.4999C6.34717 9.13414 9.08545 6.39632 12.4507 6.39632C15.8164 6.39632 18.5542 9.13414 18.5542 12.4999C18.5542 15.8656 15.8159 18.6035 12.4507 18.6035ZM12.4507 8.34946C10.1621 8.34946 8.30029 10.2113 8.30029 12.4999C8.30029 14.7885 10.1621 16.6503 12.4507 16.6503C14.7393 16.6503 16.6011 14.7885 16.6011 12.4999C16.6011 10.2113 14.7393 8.34946 12.4507 8.34946ZM19.2378 4.44318C18.4287 4.44318 17.7729 5.09895 17.7729 5.90803C17.7729 6.71712 18.4287 7.37289 19.2378 7.37289C20.0469 7.37289 20.7026 6.71712 20.7026 5.90803C20.7026 5.09895 20.0469 4.44318 19.2378 4.44318Z" fill="white"/>
</svg>
