<svg width="69" height="78" viewBox="0 0 69 78" fill="none" xmlns="http://www.w3.org/2000/svg">
<path d="M17.4758 41.0955L1.42859 64.6127C0.750886 65.6057 1.34331 66.9672 2.53272 67.1469L10.4063 68.3363C10.8982 68.411 11.3277 68.7049 11.5759 69.1343L15.5539 76.0333C16.1554 77.075 17.6388 77.1313 18.3165 76.1383L34.3637 52.6211L17.4758 41.0955Z" fill="#00D0C4"/>
<path d="M34.3652 52.6212L18.3165 76.1369C17.6388 77.1313 16.1554 77.075 15.5554 76.0333L14.8183 74.7556C15.2995 74.7312 15.7716 74.4982 16.0793 74.0474L31.8645 50.9155L34.3652 52.6212Z" fill="#00A299"/>
<path d="M28.9268 48.9097L13.2024 71.9533L11.5775 69.1344C11.3292 68.7034 10.8982 68.4095 10.4063 68.3348L7.18836 67.849L22.9127 44.8069L28.9268 48.9097Z" fill="#F4D902"/>
<path d="M28.9268 48.9113L13.2024 71.9534L11.5835 69.1481L26.516 47.2665L28.9268 48.9113Z" fill="#CDB600"/>
<path d="M50.621 41.0955L66.6682 64.6127C67.3459 65.6057 66.7535 66.9672 65.5641 67.1469L57.6905 68.3363C57.1986 68.411 56.7691 68.7049 56.5209 69.1343L52.5414 76.0333C51.9399 77.075 50.4565 77.1313 49.7788 76.1383L33.7316 52.6196L50.621 41.0955Z" fill="#00D0C4"/>
<path d="M65.5641 67.1469L63.8858 67.3997C64.1752 66.888 64.1874 66.2271 63.8127 65.6788L48.1767 42.7631L50.621 41.0955L66.6682 64.6127C67.3475 65.6057 66.7535 66.9672 65.5641 67.1469Z" fill="#00A299"/>
<path d="M39.1701 48.9097L54.8944 71.9533L56.5194 69.1344C56.7676 68.7034 57.1986 68.4095 57.6905 68.3348L60.9085 67.849L45.1842 44.8069L39.1701 48.9097Z" fill="#F4D902"/>
<path d="M60.9085 67.849L57.6905 68.3348C57.6601 68.3394 57.6311 68.344 57.6007 68.3516H57.5992L42.6926 46.5065L45.1826 44.8069L60.9085 67.849Z" fill="#CDB600"/>
<path d="M62.4025 29.1968C62.4025 31.5954 59.6201 33.595 59.0277 35.8063C58.4155 38.0953 59.8075 41.2143 58.6485 43.2185C57.4728 45.2501 54.0629 45.5973 52.4136 47.2467C50.7642 48.896 50.417 52.3059 48.3854 53.4816C46.3827 54.6405 43.2622 53.2486 40.9733 53.8608C38.762 54.4517 36.7623 57.2356 34.3637 57.2356C31.9651 57.2356 29.9655 54.4532 27.7542 53.8608C25.4652 53.2486 22.3462 54.6405 20.342 53.4816C18.3104 52.3059 17.9632 48.896 16.3138 47.2467C14.6645 45.5973 11.2546 45.2501 10.0789 43.2185C8.91997 41.2158 10.3119 38.0953 9.69972 35.8063C9.10881 33.595 6.32488 31.5954 6.32488 29.1968C6.32488 26.7982 9.10729 24.7985 9.69972 22.5872C10.3119 20.2983 8.91997 17.1793 10.0789 15.1751C11.2546 13.1435 14.6645 12.7963 16.3138 11.1469C17.9632 9.49757 18.3104 6.08771 20.342 4.912C22.3447 3.75305 25.4652 5.14501 27.7542 4.53279C29.9655 3.94189 31.9651 1.15796 34.3637 1.15796C36.7623 1.15796 38.762 3.94037 40.9733 4.53279C43.2622 5.14501 46.3812 3.75305 48.3854 4.912C50.417 6.08771 50.7642 9.49757 52.4136 11.1469C54.0629 12.7963 57.4728 13.1435 58.6485 15.1751C59.8075 17.1778 58.4155 20.2983 59.0277 22.5872C59.6186 24.7985 62.4025 26.7982 62.4025 29.1968Z" fill="#F4D902"/>
<path d="M58.65 43.2185C57.4728 45.2501 54.0644 45.5974 52.4151 47.2467C50.7657 48.8976 50.4185 52.3059 48.3854 53.4816C46.3827 54.6406 43.2622 53.2486 40.9732 53.8608C38.7619 54.4517 36.7623 57.2357 34.3637 57.2357C32.9504 57.2357 31.6742 56.2686 30.4132 55.3518C31.7366 54.5157 32.9352 53.3461 34.3119 52.5861C34.7992 52.3181 35.3064 52.1003 35.8501 51.9663C37.7812 51.4911 39.9255 50.8911 41.9159 50.2926C54.8274 46.4106 60.3405 30.4076 53.7644 18.9855C52.1973 16.264 50.2373 13.7969 48.5727 11.1393C47.429 9.31182 46.6904 7.08376 45.6746 5.2806C45.5329 5.02931 45.3928 4.75823 45.2512 4.47648C46.4025 4.38663 47.5021 4.40034 48.3854 4.91205C50.4185 6.08775 50.7657 9.49762 52.4151 11.147C54.0644 12.7963 57.4728 13.1435 58.65 15.1767C59.8089 17.1793 58.417 20.2998 59.0277 22.5888C59.6186 24.8001 62.4025 26.7997 62.4025 29.1984C62.4025 31.5955 59.6186 33.5966 59.0277 35.8079C58.417 38.0938 59.8089 41.2143 58.65 43.2185Z" fill="#E3CA00"/>
<path d="M34.3652 47.2315C44.3255 47.2315 52.3999 39.1571 52.3999 29.1969C52.3999 19.2366 44.3255 11.1622 34.3652 11.1622C24.405 11.1622 16.3306 19.2366 16.3306 29.1969C16.3306 39.1571 24.405 47.2315 34.3652 47.2315Z" fill="#FFFACE"/>
<path d="M52.3984 29.1968C52.3984 39.1568 44.3237 47.2314 34.3637 47.2314C28.9558 47.2314 24.1037 44.8511 20.7974 41.0803C23.8387 43.418 27.6445 44.8069 31.7747 44.8069C41.7347 44.8069 49.8094 36.7323 49.8094 26.7723C49.8094 22.2202 48.1219 18.0611 45.3411 14.8888C49.6327 18.1844 52.3984 23.367 52.3984 29.1968Z" fill="#FEF48B"/>
<path d="M39.697 21.3796L31.4899 29.5867C31.4183 29.6583 31.3041 29.6583 31.2325 29.5867L29.0334 27.3876C27.7998 26.154 25.7987 26.154 24.5636 27.3876C23.33 28.6212 23.33 30.6223 24.5636 31.8574L30.139 37.4329C30.8137 38.1076 31.9072 38.1076 32.5818 37.4329L44.1653 25.8494C45.3989 24.6158 45.3989 22.6147 44.1653 21.3796C42.9317 20.146 40.9306 20.146 39.697 21.3796Z" fill="#97D729"/>
<path d="M44.1653 25.8494L32.5803 37.4329C31.9057 38.1075 30.8122 38.1075 30.1375 37.4329L28.4958 35.7911C29.1019 35.9846 29.7918 35.8414 30.2746 35.3602L42.0713 23.5635C42.8693 22.7639 43.1617 21.6491 42.9439 20.6196C43.3902 20.7704 43.8105 21.0247 44.1653 21.3796C45.4004 22.6132 45.4004 24.6143 44.1653 25.8494Z" fill="#8BC727"/>
<path d="M67.6125 63.9686L55.764 46.604C57.1926 45.9674 58.8008 45.2395 59.6384 43.7896C60.4714 42.3489 60.2994 40.6615 60.1334 39.032C60.0222 37.9385 59.9171 36.9075 60.1318 36.1019C60.3329 35.3495 60.9238 34.5363 61.5497 33.6743C62.4848 32.3874 63.5447 30.9269 63.5447 29.1968C63.5447 27.4668 62.4848 26.0063 61.5497 24.7194C60.9238 23.8589 60.3344 23.0457 60.1318 22.2934C59.9171 21.4877 60.0222 20.4552 60.1334 19.3632C60.2994 17.7322 60.4714 16.0463 59.6384 14.6056C58.7916 13.142 57.1621 12.4156 55.7229 11.7729C54.7315 11.3312 53.7949 10.9124 53.2223 10.3398C52.6496 9.76719 52.2323 8.83058 51.7892 7.83915C51.148 6.40149 50.42 4.77043 48.9565 3.92367C47.5143 3.09063 45.8284 3.26272 44.1973 3.42872C43.1054 3.53989 42.0728 3.6465 41.2672 3.43024C40.5149 3.22921 39.7016 2.63831 38.8411 2.01238C37.5543 1.0773 36.0953 0.017334 34.3652 0.017334C32.6336 0.017334 31.1747 1.0773 29.8878 2.01238C29.0273 2.63831 28.2141 3.22769 27.4617 3.43024C26.6561 3.64497 25.6236 3.53989 24.5316 3.42872C22.9005 3.26272 21.2146 3.09063 19.7739 3.92367C18.3104 4.77043 17.584 6.39997 16.9413 7.83915C16.4996 8.83058 16.0808 9.76719 15.5082 10.3398C14.9356 10.9124 13.999 11.3297 13.0075 11.7729C11.5683 12.4141 9.9388 13.142 9.09205 14.6056C8.259 16.0463 8.43109 17.7337 8.59709 19.3632C8.70827 20.4567 8.81335 21.4877 8.59861 22.2934C8.39759 23.0457 7.80669 23.8589 7.18076 24.7194C6.24567 26.0078 5.18571 27.4668 5.18571 29.1968C5.18571 30.9269 6.24567 32.3874 7.18076 33.6743C7.80669 34.5347 8.39606 35.348 8.59861 36.1003C8.81335 36.906 8.70827 37.9385 8.59709 39.0305C8.43109 40.6615 8.259 42.3474 9.09205 43.7881C9.83676 45.075 11.1891 45.7938 12.4836 46.3847L0.484396 63.9686C-0.0562475 64.762 -0.15067 65.7611 0.233111 66.6413C0.616892 67.5216 1.41339 68.1323 2.36218 68.2755L7.01628 68.9775H7.0178L10.2358 69.4634C10.3835 69.4862 10.5114 69.573 10.5876 69.704L12.2065 72.5123L14.5655 76.6014C15.0452 77.4329 15.9042 77.9507 16.8636 77.9872C16.8986 77.9888 16.9352 77.9888 16.9702 77.9888C17.8885 77.9888 18.7383 77.541 19.2592 76.778L32.1844 57.8372C32.8621 58.1586 33.5855 58.3733 34.3637 58.3733C34.9576 58.3733 35.5181 58.2469 36.0526 58.0444L48.8362 76.778C49.357 77.541 50.2068 77.9888 51.1252 77.9888C51.1602 77.9888 51.1967 77.9888 51.2318 77.9872C52.1912 77.9507 53.0502 77.4329 53.5299 76.6014L55.8889 72.5123L57.5078 69.704C57.5824 69.5745 57.7104 69.4862 57.8596 69.4634L61.0776 68.9775H61.0806L65.7347 68.2755C66.6835 68.1323 67.48 67.5216 67.8638 66.6413C68.2476 65.7611 68.1531 64.762 67.6125 63.9686ZM6.64925 66.6139L2.70332 66.0185C2.47031 65.9834 2.36827 65.822 2.32715 65.7291C2.28603 65.6362 2.23882 65.4519 2.37132 65.257L14.5701 47.3792C14.934 47.5848 15.2554 47.8041 15.5051 48.0554C16.0778 48.628 16.4951 49.5646 16.9382 50.5561C17.025 50.7495 17.1134 50.9475 17.2047 51.1454L6.64925 66.6139ZM17.3738 75.4942C17.2413 75.6891 17.0525 75.712 16.9504 75.7074C16.8499 75.7044 16.6626 75.6663 16.5438 75.4622L14.5503 72.0051L21.6639 61.5806C22.0188 61.0598 21.8847 60.3486 21.3639 59.9937C20.843 59.6374 20.1318 59.7729 19.777 60.2937L13.2847 69.8091L12.5674 68.5648C12.1425 67.8292 11.4176 67.3343 10.5784 67.2079L9.15753 66.9931L18.4779 53.3339C18.8373 53.7817 19.2592 54.1746 19.7709 54.4715C20.8628 55.1036 22.0964 55.1569 23.3391 55.0731L22.7498 55.9366C22.3949 56.4575 22.5289 57.1687 23.0498 57.5235C23.5706 57.8784 24.2818 57.7443 24.6367 57.2235L26.2617 54.8416C26.6957 54.8386 27.1008 54.869 27.4587 54.9635C28.211 55.1645 29.0243 55.7554 29.8863 56.3813C30.002 56.4651 30.1208 56.5519 30.2396 56.6372L17.3738 75.4942ZM34.3652 56.092C33.3768 56.092 32.3336 55.335 31.2295 54.5325C30.2381 53.8121 29.2116 53.0674 28.0496 52.7567C27.4876 52.6075 26.9089 52.5542 26.3256 52.5542C25.6494 52.5542 24.9672 52.6242 24.2971 52.6927C22.9706 52.8283 21.7157 52.9562 20.9146 52.4932C20.0922 52.0181 19.5744 50.8546 19.0247 49.624C18.5175 48.4864 17.9921 47.3107 17.121 46.4396C16.2499 45.5684 15.0742 45.043 13.9365 44.5359C12.706 43.9876 11.544 43.4683 11.0673 42.6459C10.6043 41.8449 10.7323 40.5915 10.8678 39.2635C10.9957 38.0131 11.1267 36.7217 10.8038 35.511C10.4932 34.3489 9.74843 33.3225 9.02808 32.3311C8.22549 31.2269 7.46859 30.1837 7.46859 29.1953C7.46859 28.2069 8.22549 27.1637 9.02808 26.0596C9.74843 25.0682 10.4932 24.0432 10.8038 22.8797C11.1267 21.669 10.9957 20.3775 10.8678 19.1272C10.7323 17.7992 10.6043 16.5458 11.0673 15.7447C11.5425 14.9223 12.706 14.4045 13.9365 13.8548C15.0742 13.3476 16.2499 12.8222 17.121 11.9511C17.9921 11.08 18.5175 9.90425 19.0247 8.76662C19.5729 7.53608 20.0922 6.37408 20.9146 5.8974C21.7157 5.43443 22.9691 5.56236 24.2971 5.6979C25.5474 5.82582 26.8389 5.95832 28.0496 5.63393C29.2116 5.32325 30.2365 4.57854 31.2295 3.85819C32.3336 3.05864 33.3753 2.30174 34.3652 2.30174C35.3536 2.30174 36.3968 3.05864 37.501 3.86123C38.4924 4.58158 39.5173 5.3263 40.6809 5.63698C41.8916 5.95984 43.183 5.82887 44.4334 5.70094C45.7614 5.5654 47.0148 5.43747 47.8158 5.90045C48.6382 6.3756 49.156 7.53913 49.7058 8.76966C50.2129 9.9073 50.7383 11.083 51.6095 11.9541C52.4806 12.8253 53.6563 13.3507 54.7939 13.8578C56.0245 14.4061 57.1865 14.9254 57.6631 15.7478C58.1261 16.5488 57.9982 17.8022 57.8626 19.1302C57.7347 20.3806 57.6037 21.672 57.9266 22.8827C58.2373 24.0447 58.982 25.0712 59.7024 26.0626C60.5049 27.1668 61.2618 28.21 61.2618 29.1984C61.2618 30.1868 60.5049 31.23 59.7024 32.3341C58.982 33.3255 58.2373 34.3505 57.9266 35.514C57.6037 36.7247 57.7347 38.0162 57.8626 39.2665C57.9982 40.5945 58.1261 41.8479 57.6631 42.649C57.188 43.4714 56.0245 43.9907 54.7939 44.5389C53.6563 45.0461 52.4806 45.5715 51.6095 46.4426C50.7383 47.3137 50.2129 48.4894 49.7058 49.6271C49.1575 50.8576 48.6382 52.0196 47.8158 52.4963C47.0148 52.9593 45.7614 52.8313 44.4334 52.6958C43.183 52.5679 41.8916 52.4369 40.6809 52.7598C39.5188 53.0704 38.4924 53.8152 37.501 54.5355C36.3953 55.3351 35.3536 56.092 34.3652 56.092ZM51.5531 75.4622C51.4358 75.6663 51.2485 75.7028 51.1465 75.7074C51.0444 75.712 50.8556 75.6891 50.7231 75.4942L38.0614 56.9387C38.3294 56.7544 38.5883 56.5656 38.8427 56.3813C39.7031 55.7554 40.5164 55.166 41.2702 54.9635C41.453 54.9147 41.6479 54.8843 41.852 54.8645L53.5482 72.0051L51.5531 75.4622ZM57.52 67.2064C56.6808 67.3328 55.9559 67.8277 55.531 68.5633L54.8137 69.8075L44.7197 55.0152C46.1848 55.1553 47.6696 55.2132 48.958 54.4685C49.3098 54.2644 49.619 54.0147 49.8946 53.7344L58.9409 66.9901L57.52 67.2064ZM65.7697 65.7291C65.7286 65.822 65.6266 65.9819 65.3936 66.0185L61.4476 66.6139L51.2653 51.6907C51.4541 51.3099 51.6247 50.9261 51.7907 50.5545C52.2323 49.5631 52.6512 48.6265 53.2238 48.0539C53.3669 47.9107 53.5314 47.7782 53.7142 47.6518L65.7256 65.2555C65.8581 65.4519 65.8093 65.6362 65.7697 65.7291Z" fill="black"/>
<path d="M53.5406 29.1969C53.5406 18.6231 44.9375 10.02 34.3637 10.02C23.7899 10.02 15.1869 18.6231 15.1869 29.1969C15.1869 39.7706 23.7899 48.3737 34.3637 48.3737C44.939 48.3737 53.5406 39.7706 53.5406 29.1969ZM34.3652 46.0893C25.0509 46.0893 17.4728 38.5112 17.4728 29.1969C17.4728 19.8826 25.0509 12.3044 34.3652 12.3044C43.6795 12.3044 51.2577 19.8826 51.2577 29.1969C51.2577 38.5112 43.6795 46.0893 34.3652 46.0893Z" fill="black"/>
<path d="M41.9312 19.313C40.7814 19.313 39.7016 19.7607 38.8883 20.5725L31.3605 28.1003L29.8406 26.5805C29.0273 25.7672 27.9475 25.321 26.7977 25.321C25.6479 25.321 24.5681 25.7687 23.7549 26.5805C22.0781 28.2587 22.0781 30.9878 23.7549 32.6646L29.3304 38.2401C29.8725 38.7822 30.5929 39.0807 31.3589 39.0807C32.125 39.0807 32.8468 38.7822 33.3875 38.2401L36.9862 34.6414C37.4324 34.1952 37.4324 33.4718 36.9862 33.0255C36.54 32.5793 35.8166 32.5793 35.3704 33.0255L31.7716 36.6242C31.5508 36.8451 31.1655 36.8451 30.9447 36.6242L25.3692 31.0488C24.5819 30.2614 24.5819 28.9821 25.3692 28.1948C25.7499 27.814 26.2571 27.6039 26.7962 27.6039C27.3353 27.6039 27.8425 27.814 28.2232 28.1948L30.4223 30.3939C30.9386 30.9102 31.7793 30.9102 32.2955 30.3939L40.5027 22.1868C40.8834 21.806 41.3905 21.5959 41.9297 21.5959C42.4688 21.5959 42.9759 21.806 43.3566 22.1868C44.144 22.9741 44.144 24.2534 43.3566 25.0408L39.1168 29.2806C38.6706 29.7268 38.6706 30.4502 39.1168 30.8965C39.563 31.3427 40.2864 31.3427 40.7326 30.8965L44.9725 26.6566C45.7857 25.8434 46.232 24.7636 46.232 23.6138C46.232 22.4639 45.7842 21.3842 44.9725 20.5709C44.1608 19.7592 43.081 19.313 41.9312 19.313Z" fill="black"/>
</svg>
