<svg width="20" height="19" viewBox="0 0 20 19" fill="none" xmlns="http://www.w3.org/2000/svg">
<path d="M18.3216 3.50299C17.5904 2.51101 16.3104 1.61554 14.7167 0.981747C13.1319 0.351254 11.2915 0.0026106 9.53485 4.16508e-05C7.77817 -0.00436226 5.93554 0.340611 4.34817 0.966334C2.75187 1.59536 1.4685 2.48715 0.735094 3.47656C0.0303392 4.42707 -0.172826 5.45172 0.147922 6.43966C0.355925 7.08043 0.962074 7.51165 1.65715 7.51275L4.03672 7.51495C4.03747 7.51495 4.03821 7.51495 4.03896 7.51495C4.51338 7.51495 4.95915 7.31017 5.26204 6.95272C5.56195 6.5993 5.68586 6.13689 5.60288 5.68476C5.60028 5.67155 5.5973 5.65834 5.59395 5.64512L5.46856 5.1651C6.16178 4.83884 7.73278 4.20835 9.52703 4.21826C11.3202 4.22743 12.8901 4.85756 13.584 5.18381L13.4568 5.66127C13.453 5.67485 13.4501 5.68843 13.4475 5.70201C13.363 6.15414 13.4858 6.61655 13.7846 6.9707C14.0871 7.32962 14.5332 7.53587 15.0088 7.5366L17.3884 7.53881C17.3891 7.53881 17.3898 7.53881 17.3906 7.53881C18.0842 7.53881 18.6907 7.10942 18.9002 6.47012C19.2247 5.48255 19.0241 4.45643 18.3216 3.50299Z" fill="#FCC904"/>
<path d="M14.9069 9.93496L13.1324 8.09743C13.0252 7.98623 12.8764 7.92348 12.7208 7.92348H11.574V7.1594C11.574 6.84966 11.3195 6.59863 11.0055 6.59863C10.6914 6.59863 10.4369 6.84966 10.4369 7.1594V7.92348H8.61658V7.1594C8.61658 6.84966 8.36207 6.59863 8.04802 6.59863C7.73397 6.59863 7.47945 6.84966 7.47945 7.1594V7.92348H6.33264C6.17711 7.92348 6.02827 7.98623 5.9211 8.09743L4.14657 9.93496C2.75529 11.3758 1.98877 13.2651 1.98877 15.2549V17.5614C1.98877 17.8712 2.24328 18.1222 2.55734 18.1222H16.4958C16.8098 18.1222 17.0643 17.8712 17.0643 17.5614V15.2549C17.0643 13.2651 16.2982 11.3758 14.9069 9.93496ZM9.52674 16.0726C7.88616 16.0726 6.55144 14.7561 6.55144 13.1381C6.55144 11.52 7.88616 10.2036 9.52674 10.2036C11.1673 10.2036 12.502 11.52 12.502 13.1381C12.5017 14.7561 11.1669 16.0726 9.52674 16.0726Z" fill="#FCC904"/>
<path d="M9.52664 11.325C8.51305 11.325 7.68848 12.1382 7.68848 13.1379C7.68848 14.1376 8.51305 14.9508 9.52664 14.9508C10.5402 14.9508 11.3648 14.1376 11.3648 13.1379C11.3648 12.1382 10.5402 11.325 9.52664 11.325Z" fill="#FCC904"/>
</svg>
