<svg width="25" height="22" viewBox="0 0 25 22" fill="none" xmlns="http://www.w3.org/2000/svg">
<path d="M12.6394 3.92243C16.8506 3.9681 19.4912 3.69409 19.8462 8.56541H24.9814C24.9862 1.01486 18.6742 0 12.5032 0C6.33226 0 0.025116 1.01993 0.025116 8.56541H5.1214C5.52016 3.59768 8.46219 3.88184 12.6394 3.92243Z" fill="white"/>
<path d="M2.57246 10.991C3.82221 10.991 4.86287 11.0671 5.09628 9.78334C5.12546 9.61081 5.14491 9.41291 5.14491 9.18457H5.08656H0C0 11.0925 1.1525 10.991 2.57246 10.991Z" fill="white"/>
<path d="M19.8794 9.18457H19.8308C19.8308 9.41291 19.8502 9.61081 19.8843 9.78334C20.1274 10.9656 21.1681 10.8946 22.413 10.8946C23.8426 10.8946 25 10.991 25 9.18457H19.8794Z" fill="white"/>
<path d="M17.3702 7.88534V7.12419C17.3702 6.78421 16.9957 6.76392 16.5338 6.76392H15.7751C15.3132 6.76392 14.9387 6.78421 14.9387 7.12419V7.77878V8.2862H9.58958V7.77878V7.12419C9.58958 6.78421 9.21514 6.76392 8.75316 6.76392H7.99456C7.53259 6.76392 7.15814 6.78421 7.15814 7.12419V7.88534V8.55007C5.93756 9.86939 1.95001 15.4968 1.80899 16.1767V20.7233C1.80899 21.1445 2.1348 21.4844 2.53842 21.4844H21.9899C22.3935 21.4844 22.7193 21.1445 22.7193 20.7233V16.1564C22.5783 15.4968 18.5907 9.87446 17.3702 8.55007V7.88534ZM9.32698 16.7857C8.93309 16.7857 8.617 16.4558 8.617 16.0448C8.617 15.6338 8.93309 15.304 9.32698 15.304C9.72088 15.304 10.037 15.6338 10.037 16.0448C10.037 16.4558 9.71601 16.7857 9.32698 16.7857ZM9.32698 14.2485C8.93309 14.2485 8.617 13.9187 8.617 13.5077C8.617 13.0966 8.93309 12.7668 9.32698 12.7668C9.72088 12.7668 10.037 13.0966 10.037 13.5077C10.037 13.9187 9.71601 14.2485 9.32698 14.2485ZM9.32698 11.7114C8.93309 11.7114 8.617 11.3815 8.617 10.9705C8.617 10.5595 8.93309 10.2297 9.32698 10.2297C9.72088 10.2297 10.037 10.5595 10.037 10.9705C10.037 11.3815 9.71601 11.7114 9.32698 11.7114ZM12.2447 16.7857C11.8508 16.7857 11.5347 16.4558 11.5347 16.0448C11.5347 15.6338 11.8508 15.304 12.2447 15.304C12.6386 15.304 12.9547 15.6338 12.9547 16.0448C12.9547 16.4558 12.6337 16.7857 12.2447 16.7857ZM12.2447 14.2485C11.8508 14.2485 11.5347 13.9187 11.5347 13.5077C11.5347 13.0966 11.8508 12.7668 12.2447 12.7668C12.6386 12.7668 12.9547 13.0966 12.9547 13.5077C12.9547 13.9187 12.6337 14.2485 12.2447 14.2485ZM12.2447 11.7114C11.8508 11.7114 11.5347 11.3815 11.5347 10.9705C11.5347 10.5595 11.8508 10.2297 12.2447 10.2297C12.6386 10.2297 12.9547 10.5595 12.9547 10.9705C12.9547 11.3815 12.6337 11.7114 12.2447 11.7114ZM15.1624 16.7857C14.7685 16.7857 14.4524 16.4558 14.4524 16.0448C14.4524 15.6338 14.7685 15.304 15.1624 15.304C15.5563 15.304 15.8724 15.6338 15.8724 16.0448C15.8675 16.4558 15.5515 16.7857 15.1624 16.7857ZM15.1624 14.2485C14.7685 14.2485 14.4524 13.9187 14.4524 13.5077C14.4524 13.0966 14.7685 12.7668 15.1624 12.7668C15.5563 12.7668 15.8724 13.0966 15.8724 13.5077C15.8724 13.9187 15.5515 14.2485 15.1624 14.2485ZM15.1624 11.7114C14.7685 11.7114 14.4524 11.3815 14.4524 10.9705C14.4524 10.5595 14.7685 10.2297 15.1624 10.2297C15.5563 10.2297 15.8724 10.5595 15.8724 10.9705C15.8675 11.3815 15.5515 11.7114 15.1624 11.7114Z" fill="white"/>
</svg>
