<svg width="24" height="18" viewBox="0 0 24 18" fill="none" xmlns="http://www.w3.org/2000/svg">
<path d="M1.52277 3.67176C2.33419 3.65622 2.98699 2.99382 2.98699 2.17874V0H0.6862C0.307687 0 0.000488281 0.307199 0.000488281 0.685712V2.14902C0.000488281 2.9865 0.685743 3.68776 1.52277 3.67176Z" fill="#FCC904"/>
<path d="M5.85188 3.67222C6.67656 3.67222 7.34536 3.00342 7.34536 2.17874V0H4.3584V2.17874C4.3584 3.00342 5.0272 3.67222 5.85188 3.67222Z" fill="#FCC904"/>
<path d="M10.2098 3.67222C11.0345 3.67222 11.7033 3.00342 11.7033 2.17874V0H8.7168V2.17874C8.7168 3.00342 9.38514 3.67222 10.2098 3.67222Z" fill="#FCC904"/>
<path d="M18.2646 10.1851C17.8861 10.1851 17.5789 9.8779 17.5789 9.49939V5.09254C17.5789 4.71403 17.8861 4.40683 18.2646 4.40683H20.9403C20.9403 4.40637 20.9403 4.40683 20.2413 3.00707C19.7906 2.10284 19.0966 1.34399 18.2354 0.81233C17.9721 0.649587 17.6964 0.510616 17.4121 0.395874C17.4253 0.490502 17.4331 0.587416 17.4331 0.685702V2.17873C17.4331 3.75815 16.1558 5.04363 14.5696 5.04363C14.0224 5.04363 13.5104 4.88729 13.0752 4.61712V9.49939C13.0752 9.8779 12.768 10.1851 12.3894 10.1851H3.67267C3.29416 10.1851 2.98696 9.8779 2.98696 9.49939V4.62443C2.55771 4.88774 2.06445 5.03312 1.54879 5.04317C0.813254 5.05643 0.277485 4.78992 0 4.61803V14.6409C0 15.0194 0.307199 15.3266 0.685712 15.3266H1.51771C1.51771 13.3554 3.12136 11.7517 5.09256 11.7517C7.06375 11.7517 8.6674 13.3554 8.6674 15.3266H14.0036C14.0036 13.3554 15.6073 11.7517 17.5785 11.7517C19.5497 11.7517 21.1533 13.3554 21.1533 15.3266H22.7204C23.0989 15.3266 23.4061 15.0194 23.4061 14.6409V10.1851H18.2646Z" fill="#FCC904"/>
<path d="M18.9502 8.81374H23.144L21.6263 5.77832H18.9502V8.81374Z" fill="#FCC904"/>
<path d="M11.7033 4.62216C11.2681 4.88913 10.757 5.04364 10.2098 5.04364C9.33801 5.04364 8.55675 4.65187 8.03058 4.03564C7.50487 4.65187 6.72316 5.04364 5.85139 5.04364C5.30465 5.04364 4.79311 4.88913 4.35791 4.62216V8.81414H11.7033V4.62216Z" fill="#FCC904"/>
<path d="M14.597 3.67176C15.4084 3.65622 16.0612 2.99382 16.0612 2.17874V0.685712C16.0612 0.307199 15.754 0 15.3755 0H13.0747V2.14902C13.0747 2.9865 13.76 3.68776 14.597 3.67176Z" fill="#FCC904"/>
<path d="M5.09307 13.1232C3.87799 13.1232 2.88965 14.1115 2.88965 15.3266C2.88965 16.5417 3.87799 17.53 5.09307 17.53C6.30815 17.53 7.29649 16.5417 7.29649 15.3266C7.29649 14.1115 6.30815 13.1232 5.09307 13.1232Z" fill="#FCC904"/>
<path d="M17.5789 13.1232C16.3638 13.1232 15.3755 14.1115 15.3755 15.3266C15.3755 16.5417 16.3638 17.53 17.5789 17.53C18.794 17.53 19.7823 16.5417 19.7823 15.3266C19.7823 14.1115 18.794 13.1232 17.5789 13.1232Z" fill="#FCC904"/>
</svg>
