<svg width="53" height="79" viewBox="0 0 53 79" fill="none" xmlns="http://www.w3.org/2000/svg">
<path d="M51.1163 40.7468V77.1824H39.988V42.5428L51.1163 40.7468Z" fill="#E6F6FC"/>
<path d="M47.7705 41.2868V77.1824H51.1178V40.7468L47.7705 41.2868Z" fill="#CAE5ED"/>
<path d="M51.1163 40.7468C51.1163 43.2069 49.1213 45.2018 46.6613 45.2018C44.2013 45.2018 42.2063 43.2069 42.2063 40.7468C42.2063 38.2868 44.2013 36.2918 46.6613 36.2918C49.1213 36.2918 51.1163 38.2868 51.1163 40.7468Z" fill="#9BB8D1"/>
<path d="M42.6454 39.884H46.6613V45.2018H42.6469C41.1782 45.2018 39.988 44.0116 39.988 42.5429C39.988 41.0742 41.1782 39.884 42.6454 39.884Z" fill="#CAE5ED"/>
<path d="M26.8386 50.4677H19.6681L10.5714 54.427C4.84969 56.9161 1.14738 62.5629 1.14738 68.8032V76.6056C1.14738 76.9238 1.4044 77.1809 1.72262 77.1809H44.7841C45.1023 77.1809 45.3593 76.9238 45.3593 76.6056V68.8032C45.3593 62.5629 41.6586 56.9161 35.9368 54.4254L26.8386 50.4677Z" fill="#87D1EA"/>
<path d="M35.9368 54.427L26.8386 50.4677H23.1669L32.2651 54.427C37.9869 56.9161 41.6876 62.5629 41.6876 68.8048V76.6072C41.6876 76.9254 41.4306 77.1824 41.1124 77.1824H44.7841C45.1023 77.1824 45.3594 76.9254 45.3594 76.6072V68.8048C45.3609 62.5629 41.6586 56.9161 35.9368 54.427Z" fill="#5FA6CE"/>
<path d="M21.1046 56.8962H25.4051L28.5322 77.1824H17.976L21.1046 56.8962Z" fill="#3A4D7B"/>
<path d="M9.02017 55.2087L14.9882 65.5094L23.2526 60.3996V50.4677H19.6681C9.92892 54.7161 10.29 54.5065 9.1701 55.12C9.1701 55.12 9.16704 55.1231 9.16398 55.1261C9.11808 55.1475 9.05536 55.1858 9.02017 55.2087Z" fill="#C2F4FF"/>
<path d="M37.4851 55.2087L31.517 65.5094L23.2526 60.3996V50.4677H26.8371C36.5763 54.7161 36.2153 54.5065 37.3352 55.12C37.3352 55.12 37.3382 55.1231 37.3413 55.1261C37.3856 55.1475 37.4484 55.1858 37.4851 55.2087Z" fill="#C2F4FF"/>
<path d="M17.078 40.9885V53.0577L23.2541 60.3996L29.4303 53.0593V40.9901H17.078V40.9885Z" fill="#FFCCA9"/>
<path d="M17.078 48.5584C19.6084 50.3085 22.6789 51.3336 25.988 51.3336C27.1706 51.3336 28.3226 51.202 29.4303 50.9542V40.9885H17.078V48.5584Z" fill="#FFA076"/>
<path d="M7.57288 22.8273V32.5788C7.57288 41.2394 14.5935 48.26 23.2541 48.26C31.9148 48.26 38.9354 41.2394 38.9354 32.5788V22.8273H7.57288Z" fill="#FFCCA9"/>
<path d="M35.1551 22.8273V32.5787C35.1551 40.5999 29.1335 47.2135 21.3647 48.1468C21.9843 48.2202 22.6146 48.2584 23.2541 48.2584C31.9148 48.2584 38.9354 41.2378 38.9354 32.5772V22.8257H35.1551V22.8273Z" fill="#FFA076"/>
<path d="M38.5897 17.6517V16.4828C38.5897 8.01343 31.7236 1.14734 23.2542 1.14734C14.7848 1.14734 7.91867 8.01343 7.91867 16.4828V17.6517C7.91867 17.8307 7.77333 17.9775 7.59434 17.9775H6.87988C5.99408 17.9775 5.27504 18.6966 5.27504 19.5808V24.5575C5.27504 24.8115 5.48004 25.0165 5.734 25.0165H40.7728C41.0268 25.0165 41.2318 24.8115 41.2318 24.5575V19.5808C41.2318 18.695 40.5127 17.9775 39.6269 17.9775H38.9125C38.735 17.976 38.5897 17.8307 38.5897 17.6517Z" fill="#FFDC61"/>
<path d="M39.6284 17.976H38.914C38.735 17.976 38.5881 17.8307 38.5881 17.6501V16.4813C38.5896 8.01343 31.7235 1.14734 23.2541 1.14734C22.607 1.14734 21.9675 1.18712 21.3418 1.26514C28.9085 2.20601 34.7649 8.66057 34.7649 16.4813V17.6501C34.7649 17.8291 34.9103 17.976 35.0893 17.976H35.8037C36.6895 17.976 37.4086 18.695 37.4086 19.5793V25.015H40.7743C41.0282 25.015 41.2332 24.81 41.2332 24.556V19.5793C41.2332 18.6935 40.5142 17.976 39.6284 17.976Z" fill="#F7AD48"/>
<path d="M26.8417 17.9761C26.8417 19.9572 25.2354 21.5636 23.2542 21.5636C21.273 21.5636 19.6666 19.9572 19.6666 17.9761C19.6666 15.9949 21.273 14.3885 23.2542 14.3885C25.2354 14.3885 26.8417 15.9949 26.8417 17.9761Z" fill="#FFEEA6"/>
<path d="M9.90595 29.7699C18.8037 28.8321 27.703 28.8321 36.6008 29.7699C38.6111 29.981 40.3567 28.396 40.3567 26.3751V25.015H6.1501V26.3751C6.1501 28.396 7.89722 29.9825 9.90595 29.7699Z" fill="#FFEEA6"/>
<path d="M46.6613 35.1444C44.2303 35.1444 42.1038 36.711 41.3496 38.9629C40.8294 39.1496 40.3551 39.451 39.9528 39.8533C39.2353 40.5739 38.839 41.5285 38.839 42.5429C38.839 42.575 38.839 42.6056 38.8406 42.6377V54.6855C37.3918 53.7477 36.9007 53.5947 30.5777 50.844V47.7414C32.2529 46.9306 33.7981 45.8352 35.1535 44.4797C38.3311 41.3021 40.0813 37.0751 40.0813 32.5788V29.6873C40.987 28.8275 41.5041 27.6281 41.5041 26.3766V25.988C42.0227 25.7218 42.3792 25.1803 42.3792 24.5591V19.5824C42.3792 18.1015 41.2027 16.8899 39.7355 16.8333V16.486C39.7371 7.36637 32.3187 0 23.2542 0C18.7227 0 14.3487 1.89552 11.2507 5.18782C10.8162 5.64984 10.8377 6.37653 11.2997 6.80949C11.7617 7.24397 12.4869 7.22256 12.9214 6.76053C13.4308 6.21896 13.9739 5.72481 14.5461 5.27655L15.9505 12.7531C16.0683 13.3757 16.6665 13.7857 17.2907 13.6695C17.9133 13.5517 18.3234 12.9535 18.2056 12.3308L16.6267 3.9272C18.64 2.85934 20.8966 2.29482 23.2542 2.29482C25.6454 2.29482 27.9004 2.88994 29.8785 3.93791L28.3028 12.3293C28.1697 13.0376 28.7143 13.6894 29.4318 13.6894C29.9734 13.6894 30.4553 13.3038 30.5578 12.7531L31.9592 5.28726C35.2928 7.88499 37.4407 11.9376 37.4407 16.4829V16.8287H33.7705C33.1372 16.8287 32.6231 17.3427 32.6231 17.9761C32.6231 18.6094 33.1372 19.1235 33.7705 19.1235H39.6269C39.8778 19.1235 40.0828 19.3285 40.0828 19.5809V23.8692H6.42243V19.5809C6.42243 19.33 6.62743 19.1235 6.87986 19.1235H12.7362C13.3696 19.1235 13.8836 18.6094 13.8836 17.9761C13.8836 17.3427 13.3696 16.8287 12.7362 16.8287H9.06606V16.4829C9.06606 14.3135 9.54338 12.2314 10.4827 10.2946C10.7596 9.72391 10.521 9.03852 9.95186 8.76161C9.38275 8.48471 8.69583 8.72337 8.41892 9.29248C7.32659 11.5429 6.77124 13.9632 6.77124 16.4829V16.8302C5.30409 16.8883 4.12761 18.0985 4.12761 19.5794V24.5561C4.12761 25.1787 4.48254 25.7188 5.00117 25.985V26.3736C5.00117 27.625 5.51827 28.826 6.42396 29.6858V32.5772C6.42396 39.2337 10.3083 44.9998 15.9291 47.7276V50.8424C14.7174 51.3687 13.7414 51.7925 12.9489 52.1367C11.624 52.712 10.8009 53.0684 10.2425 53.3163L10.1125 53.3729C9.8876 53.4708 9.66424 53.5733 9.44547 53.6804C9.13338 53.8288 8.92837 53.9405 8.61781 54.1118C8.60863 54.1179 8.59945 54.1225 8.59027 54.1271C8.55508 54.147 8.52142 54.1654 8.49236 54.1837C3.28159 57.1547 0 62.7128 0 68.8032V76.6071C0 77.5572 0.772589 78.3298 1.72264 78.3298H51.1163C51.7497 78.3298 52.2637 77.8157 52.2637 77.1824V40.7468C52.2637 37.658 49.7501 35.1444 46.6613 35.1444ZM46.6613 37.4392C50.2825 37.4392 51.3106 42.549 47.8087 43.8494V39.8839C47.8087 39.2506 47.2947 38.7365 46.6613 38.7365H44.033C44.6434 37.941 45.6041 37.4392 46.6613 37.4392ZM41.5775 41.4735C41.8131 41.2379 42.1114 41.0895 42.4495 41.0436C42.5107 41.0344 42.575 41.0298 42.6469 41.0298H45.5154V44.0529H42.6469C41.8345 44.0529 41.1568 43.3919 41.1354 42.5811C41.1354 42.5704 41.1354 42.5612 41.1338 42.552V42.5413C41.1338 42.1405 41.2914 41.7596 41.5775 41.4735ZM26.8585 61.2793C26.8402 61.267 26.8218 61.2563 26.8035 61.2441L24.9875 60.1212L30.3084 53.7966C30.4232 53.6605 30.5027 53.5014 30.544 53.3316C31.0091 53.5335 31.4344 53.7186 31.823 53.8869L35.1505 55.3357C35.4702 55.4765 35.7043 55.582 35.891 55.6677L31.1162 63.9107L26.8585 61.2793ZM15.3875 63.9107L10.6128 55.6692C10.7642 55.5988 10.9463 55.5162 11.1773 55.4137L15.9628 53.3316C16.0041 53.5014 16.0851 53.6605 16.1984 53.7966L21.5193 60.1212L15.3875 63.9107ZM39.2108 26.1625V26.3751C39.2108 27.7275 38.042 28.7694 36.7217 28.6286C32.2529 28.1589 27.7535 27.9233 23.2542 27.9233C18.7548 27.9233 14.2554 28.1589 9.78663 28.6286C8.43728 28.7724 7.29752 27.6954 7.29752 26.3751V26.1625H39.2108ZM8.72031 32.5788V30.8592C9.14714 30.9387 9.58775 30.9571 10.0268 30.9112C18.8037 29.9872 27.7046 29.9872 36.4815 30.9112C36.6391 30.928 36.7966 30.9357 36.9542 30.9357C37.2357 30.9357 37.5142 30.9081 37.788 30.8576V32.5772C37.788 36.4601 36.2765 40.1088 33.5319 42.855C32.2269 44.1599 30.7154 45.1865 29.0738 45.904C29.0096 45.9254 28.9484 45.9514 28.8887 45.9836C27.1293 46.724 25.2216 47.1111 23.2557 47.1111C15.2406 47.1126 8.72031 40.5923 8.72031 32.5788ZM23.2542 49.4074C24.986 49.4074 26.6765 49.1474 28.2829 48.6471V51.5737V51.5844C28.2829 51.5952 28.2829 51.6074 28.2829 51.6181V52.6385L23.2542 58.6173L18.2254 52.6401V51.6181C18.2254 51.6028 18.2254 51.5875 18.2254 51.5722V48.6394C19.815 49.1382 21.5024 49.4074 23.2542 49.4074ZM2.29482 68.8032C2.29482 63.9474 4.70897 59.4832 8.6224 56.809L13.9953 66.0831C14.1514 66.3508 14.4084 66.5451 14.7083 66.6216C15.0081 66.6966 15.3279 66.6476 15.591 66.4855L18.7685 64.5211L16.9924 76.035H2.29482V68.8032ZM19.3147 76.035L21.3342 62.9346L23.2542 61.749L25.1742 62.9361L27.1936 76.035H19.3147ZM49.9689 76.035H46.5083V68.8032C46.5083 66.3264 45.9759 63.9306 44.9279 61.6832C44.6602 61.1095 43.9779 60.8601 43.4027 61.1278C42.829 61.3956 42.5796 62.0779 42.8473 62.6531C43.753 64.5961 44.2135 66.6645 44.2135 68.8032V76.035H29.5159L27.7398 64.5226L30.9127 66.4839C31.4574 66.8205 32.181 66.6476 32.5099 66.0831L37.8844 56.8059C38.7824 57.4194 39.6361 58.1522 40.4179 59.012C40.6443 59.2614 40.9548 59.3868 41.2669 59.3868C41.5423 59.3868 41.8192 59.2874 42.0395 59.0885C42.5092 58.6617 42.5429 57.935 42.116 57.4668C41.8024 57.1211 41.475 56.7906 41.1354 56.4755V46.0432C41.1568 46.0493 41.7871 46.3492 42.6454 46.3492C45.7005 46.1595 47.7246 46.9122 49.9689 45.266V76.035Z" fill="black"/>
<path d="M41.2333 71.5983H32.8649C32.2315 71.5983 31.7174 72.1124 31.7174 72.7457C31.7174 73.3791 32.2315 73.8931 32.8649 73.8931H41.2333C41.8667 73.8931 42.3807 73.3791 42.3807 72.7457C42.3807 72.1124 41.8667 71.5983 41.2333 71.5983Z" fill="black"/>
<path d="M27.9891 17.9761C27.9891 15.3646 25.8657 13.2411 23.2542 13.2411C20.6427 13.2411 18.5192 15.3646 18.5192 17.9761C18.5192 20.586 20.6427 22.711 23.2542 22.711C25.8641 22.711 27.9891 20.586 27.9891 17.9761ZM20.814 17.9761C20.814 16.6313 21.9079 15.5359 23.2542 15.5359C24.6005 15.5359 25.6943 16.6298 25.6943 17.9761C25.6943 19.3224 24.6005 20.4162 23.2542 20.4162C21.9079 20.4162 20.814 19.3208 20.814 17.9761Z" fill="black"/>
</svg>
