<svg width="19" height="17" viewBox="0 0 19 17" fill="none" xmlns="http://www.w3.org/2000/svg">
<path d="M16.9095 3.14463L3.19088 15.4927C2.58565 16.0374 1.82448 16.1703 1.4829 15.7908L1.08103 15.3443C0.739451 14.9648 0.951403 14.2218 1.55664 13.677L15.2752 1.32899C15.8805 0.784224 16.6416 0.651362 16.9832 1.03086L17.3851 1.47733C17.7267 1.85683 17.5147 2.59986 16.9095 3.14463Z" fill="black"/>
<path d="M1.55689 3.14463L15.2755 15.4927C15.8807 16.0374 16.6419 16.1703 16.9835 15.7908L17.3853 15.3443C17.7269 14.9648 17.515 14.2218 16.9097 13.677L3.19113 1.32899C2.5859 0.784224 1.82473 0.651362 1.48315 1.03086L1.08129 1.47733C0.739701 1.85683 0.951653 2.59986 1.55689 3.14463Z" fill="black"/>
</svg>
